<svg width="88" height="88" xmlns="http://www.w3.org/2000/svg">

 <g>
  <title>background</title>
  <rect fill="none" id="canvas_background" height="90" width="90" y="-1" x="-1"/>
 </g>
 <g>
  <title>Layer 1</title>
  <g stroke="null" id="svg_1">
   <g stroke="null" id="svg_2">
    <path fill="#3199dc" stroke="null" id="svg_3" d="m43.739124,0.782667c-23.543566,0 -42.695579,19.347044 -42.695579,43.130369s19.152014,43.130367 42.695579,43.130367c23.546612,0 42.695583,-19.347061 42.695583,-43.130367s-19.148972,-43.130369 -42.695583,-43.130369zm0,83.370989c-21.966873,0 -39.834976,-18.050041 -39.834976,-40.24062s17.868103,-40.240635 39.834976,-40.240635s39.83498,18.050045 39.83498,40.240635s-17.868103,40.24062 -39.83498,40.24062z"/>
    <path fill="#3199dc" stroke="null" id="svg_4" d="m43.739124,9.11915c-18.996483,0 -34.44313,15.603949 -34.44313,34.793886c0,19.189938 15.446648,34.793888 34.44313,34.793888c18.996483,0 34.443134,-15.603951 34.443134,-34.793888c0,-19.189938 -15.446651,-34.793886 -34.443134,-34.793886zm0,66.69496c-5.797455,0 -11.219791,-1.614311 -15.894947,-4.386986l21.350842,0c0,0 -3.687073,-1.823784 -4.104881,-3.379562c-1.241222,-4.614964 1.012497,-9.892273 3.693161,-9.387024c3.485798,0.653122 10.280491,5.905785 11.000221,-0.529903c0.423893,-3.758484 1.598026,-2.794231 1.936543,-3.601383c0.500134,-1.198402 -4.730053,-2.267429 -5.254608,-2.587807c0.423908,-0.14481 6.254917,-1.457203 6.294548,-2.541626c0.521503,-0.797909 -1.747463,-2.073326 -1.503498,-3.068398c0.478809,-1.971684 2.732521,-1.315487 3.65353,-2.538536c1.219872,-1.645115 -0.942356,-3.062252 -2.009739,-4.038849c-1.604137,-1.454109 -3.787712,-2.917461 -3.18998,-6.032093c0.38121,-2.187321 -0.286655,-4.735106 0.362923,-5.58231c0.643486,-0.853371 1.744419,-6.081367 -1.543152,-10.064766c-4.318352,-5.237264 -3.116772,3.641426 -8.511665,0.988911c-6.941078,-3.410378 -18.438385,-3.696891 -25.120251,4.291485c-4.220758,5.04933 -2.839252,17.609493 -0.326313,24.476475c0.902716,2.464581 3.284512,3.598301 3.479689,6.91317c1.073492,7.461563 -1.137524,12.840534 -2.436697,15.249683c-8.124352,-5.770226 -13.455204,-15.302063 -13.455204,-26.081554c0,-17.59103 14.165787,-31.90107 31.579479,-31.90107s31.579479,14.31004 31.579479,31.90107s-14.165783,31.901073 -31.579479,31.901073z"/>
    <path fill="#3199dc" stroke="null" id="svg_5" d="m20.83905,39.486015c-0.341564,-2.57552 -0.481853,-5.231113 -0.320217,-7.766556c-1.884705,3.650669 -2.96734,7.794266 -2.96734,12.190491c0,7.708004 3.299749,14.633526 8.520815,19.473362c0.225677,-1.099842 0.365959,-2.329037 0.43,-3.653763c-3.769409,-4.186737 -6.093271,-9.728985 -6.093271,-15.822681c0,-1.509552 0.15554,-2.985229 0.430014,-4.420853z"/>
    <path fill="#3199dc" stroke="null" id="svg_6" d="m62.506882,25.499456c-0.100628,1.457186 -0.4361,2.637094 -0.838673,3.35799c3.061886,3.715376 4.998447,8.395025 5.324757,13.512121c0.03051,0.224895 0.054901,0.44981 0.03051,0.683926c0.012184,0.286522 0.048798,0.569946 0.048798,0.859543c0,5.899612 -2.174438,11.287827 -5.736473,15.425266c-0.719723,3.031433 -2.836205,3.644508 -4.049988,3.724617c-3.049686,2.205803 -6.636105,3.68457 -10.542747,4.195969c0.027443,0.110893 0.021347,0.21566 0.051838,0.323471c0.192135,0.391251 1.540092,1.370934 2.860607,2.076424c11.600994,-2.720291 20.2743,-13.219467 20.2743,-25.748833c-0.003044,-7.153477 -2.839249,-13.6446 -7.422928,-18.410494z"/>
   </g>
  </g>
  <g id="svg_7"/>
  <g id="svg_8"/>
  <g id="svg_9"/>
  <g id="svg_10"/>
  <g id="svg_11"/>
  <g id="svg_12"/>
  <g id="svg_13"/>
  <g id="svg_14"/>
  <g id="svg_15"/>
  <g id="svg_16"/>
  <g id="svg_17"/>
  <g id="svg_18"/>
  <g id="svg_19"/>
  <g id="svg_20"/>
  <g id="svg_21"/>
 </g>
</svg>